<svg width="6325" height="2000" viewBox="0 0 6325 2000" fill="none" xmlns="http://www.w3.org/2000/svg">
<g clip-path="url(#clip0_5_268)">
<path d="M1919 1343V643H2360V747H2027V1239H2360V1343H1919ZM1968 1036V932H2305V1036H1968ZM2959.26 1343L2742.26 1029L2464.26 643H2601.26L2813.26 953L3096.26 1343H2959.26ZM2459.26 1343L2726.26 962L2793.26 1041L2586.26 1343H2459.26ZM2829.26 1018L2763.26 942L2959.26 643H3086.26L2829.26 1018ZM3475.67 1353C3426.34 1353 3380.67 1344 3338.67 1326C3297.34 1308 3261.01 1283 3229.67 1251C3199.01 1218.33 3175.01 1180.33 3157.67 1137C3141.01 1093 3132.67 1045 3132.67 993C3132.67 941 3141.01 893.333 3157.67 850C3175.01 806 3199.01 768 3229.67 736C3261.01 703.333 3297.34 678 3338.67 660C3380.67 642 3426.34 633 3475.67 633C3525.01 633 3570.34 642 3611.67 660C3653.67 678 3690.01 703.333 3720.67 736C3752.01 768.667 3776.01 807 3792.67 851C3810.01 894.333 3818.67 941.667 3818.67 993C3818.67 1044.33 3810.01 1092 3792.67 1136C3776.01 1179.33 3752.01 1217.33 3720.67 1250C3690.01 1282.67 3653.67 1308 3611.67 1326C3570.34 1344 3525.01 1353 3475.67 1353ZM3475.67 1248C3509.67 1248 3540.67 1241.67 3568.67 1229C3597.34 1216.33 3622.01 1198.67 3642.67 1176C3663.34 1152.67 3679.34 1125.67 3690.67 1095C3702.67 1063.67 3708.67 1029.67 3708.67 993C3708.67 956.333 3702.67 922.667 3690.67 892C3679.34 860.667 3663.34 833.667 3642.67 811C3622.01 787.667 3597.34 769.667 3568.67 757C3540.67 744.333 3509.67 738 3475.67 738C3441.67 738 3410.34 744.333 3381.67 757C3353.67 769.667 3329.01 787.333 3307.67 810C3287.01 832.667 3271.01 859.667 3259.67 891C3248.34 921.667 3242.67 955.667 3242.67 993C3242.67 1029.67 3248.34 1063.67 3259.67 1095C3271.01 1126.33 3287.01 1153.33 3307.67 1176C3329.01 1198.67 3353.67 1216.33 3381.67 1229C3410.34 1241.67 3441.67 1248 3475.67 1248ZM3964.9 1343V643H4262.9C4302.9 643 4339.57 653 4372.9 673C4406.9 692.333 4433.9 719 4453.9 753C4473.9 786.333 4483.9 824 4483.9 866C4483.9 904 4473.9 939.333 4453.9 972C4433.9 1004.67 4407.23 1031 4373.9 1051C4340.57 1070.33 4303.57 1080 4262.9 1080H4072.9V1343H3964.9ZM4380.9 1343L4202.9 1027L4313.9 1002L4511.9 1344L4380.9 1343ZM4072.9 976H4272.9C4292.23 976 4309.57 971.333 4324.9 962C4340.23 952 4352.23 938.667 4360.9 922C4369.57 904.667 4373.9 885.667 4373.9 865C4373.9 841.667 4368.23 821.333 4356.9 804C4346.23 786 4330.9 772 4310.9 762C4291.57 752 4269.57 747 4244.9 747H4072.9V976ZM4634.21 1343V1243H4747.21V743H4634.21V643H4968.21V743H4855.21V1243H4968.21V1343H4634.21ZM5270.75 1343V747H5074.75V643H5580.75V747H5378.75V1343H5270.75Z" fill="#007BFF"/>
<line x1="647.057" y1="539" x2="1086.06" y2="540" stroke="#007BFF" stroke-width="50"/>
<line x1="671.999" y1="549.809" x2="672.999" y2="680.809" stroke="#007BFF" stroke-width="50"/>
<line x1="897" y1="1216" x2="1180" y2="1216" stroke="#007BFF" stroke-width="50"/>
<path d="M1131 1323H1298H1414" stroke="#007BFF" stroke-width="50"/>
<line x1="1155" y1="1211.81" x2="1156" y2="1342.81" stroke="#007BFF" stroke-width="50"/>
<line x1="976.908" y1="998" x2="1537.91" y2="995.934" stroke="#007BFF" stroke-width="50"/>
<circle cx="1616" cy="1000" r="50" fill="#007BFF"/>
<circle cx="1497" cy="670" r="50" fill="#007BFF"/>
<circle cx="1168" cy="536" r="50" fill="#007BFF"/>
<line y1="-25" x2="439.001" y2="-25" transform="matrix(0.999997 -0.0022779 -0.0022779 -0.999997 647 1438)" stroke="#007BFF" stroke-width="50"/>
<line y1="-25" x2="131.004" y2="-25" transform="matrix(0.00763337 -0.999971 -0.999971 -0.00763337 647 1452)" stroke="#007BFF" stroke-width="50"/>
<line y1="-25" x2="283" y2="-25" transform="matrix(1 0 0 -1 897 752)" stroke="#007BFF" stroke-width="50"/>
<path d="M1131 670H1298H1414" stroke="#007BFF" stroke-width="50"/>
<line y1="-25" x2="131.004" y2="-25" transform="matrix(0.00763337 -0.999971 -0.999971 -0.00763337 1130 781)" stroke="#007BFF" stroke-width="50"/>
<circle cx="1497" cy="1321" r="50" fill="#007BFF"/>
<line x1="634" y1="1200" x2="634" y2="800" stroke="#007BFF" stroke-width="60"/>
<circle cx="633" cy="1000" r="270" stroke="#007BFF" stroke-width="60"/>
<line x1="433" y1="1001" x2="833.001" y2="1001" stroke="#007BFF" stroke-width="60"/>
<circle cx="1168" cy="1467" r="50" fill="#007BFF"/>
</g>
<defs>
<clipPath id="clip0_5_268">
<rect width="6325" height="2000" fill="white"/>
</clipPath>
</defs>
</svg>
